<svg width="375" height="264" viewBox="0 0 375 264" fill="none" xmlns="http://www.w3.org/2000/svg">
<g filter="url(#filter0_d_1009_4368)">
<path d="M336.783 26H38.2174C30.3653 26 24 32.2557 24 39.9726V216.027C24 223.744 30.3653 230 38.2174 230H336.783C344.635 230 351 223.744 351 216.027V39.9726C351 32.2557 344.635 26 336.783 26Z" fill="#ef4444"/>
<mask id="mask0_1009_4368" style="mask-type:alpha" maskUnits="userSpaceOnUse" x="24" y="26" width="327" height="204">
<path d="M336.783 26H38.2174C30.3653 26 24 32.2557 24 39.9726V216.027C24 223.744 30.3653 230 38.2174 230H336.783C344.635 230 351 223.744 351 216.027V39.9726C351 32.2557 344.635 26 336.783 26Z" fill="#ef4444"/>
</mask>
<g mask="url(#mask0_1009_4368)">
<path d="M69.8991 348.172C167.489 348.172 246.601 270.422 246.601 174.513C246.601 78.6032 167.489 0.853149 69.8991 0.853149C-27.6906 0.853149 -106.803 78.6032 -106.803 174.513C-106.803 270.422 -27.6906 348.172 69.8991 348.172Z" fill="#991b1b"/>
<path d="M342.878 153.749C395.599 153.749 438.338 111.746 438.338 59.9327C438.338 8.1194 395.599 -33.8835 342.878 -33.8835C290.157 -33.8835 247.418 8.1194 247.418 59.9327C247.418 111.746 290.157 153.749 342.878 153.749Z" fill="#fca5a5"/>
<path fill-rule="evenodd" clip-rule="evenodd" d="M287.346 198.394L291.046 187.87V187.871H295.042L289.104 203.345H285.109L281.721 190.029C284.114 191.321 286.259 193.924 286.943 196.319L287.346 198.394ZM296.564 187.87L294.202 203.36H297.978L300.339 187.87H296.564ZM307.955 194.18C306.635 193.493 305.826 193.03 305.826 192.327C305.842 191.689 306.51 191.035 308.002 191.035C309.229 191.002 310.131 191.306 310.815 191.608L311.157 191.769L311.671 188.528C310.925 188.225 309.742 187.89 308.281 187.89C304.552 187.89 301.926 189.933 301.91 192.855C301.879 195.011 303.79 196.207 305.22 196.925C306.681 197.661 307.178 198.138 307.178 198.793C307.162 199.797 305.997 200.26 304.91 200.26C303.403 200.26 302.594 200.022 301.366 199.462L300.869 199.223L300.341 202.592C301.228 203.007 302.859 203.373 304.552 203.391C308.516 203.391 311.094 201.379 311.127 198.266C311.14 196.557 310.132 195.249 307.955 194.18ZM318.43 187.918H321.352L324.397 203.373H320.902L320.335 200.287H315.902L314.81 203.36H310.847L316.456 189.164C316.846 188.19 317.53 187.918 318.43 187.918ZM317.001 197.183C317.082 197.175 318.522 192.167 318.522 192.167L319.672 197.183H317.001Z" fill="white"/>
<path d="M285.697 189.979C285.427 188.73 284.564 187.888 283.393 187.87H277.897L277.841 188.173C282.128 189.428 285.726 193.291 286.893 196.924L285.697 189.979Z" fill="white"/>
</g>
</g>
<defs>
<filter id="filter0_d_1009_4368" x="-6" y="0" width="387" height="264" filterUnits="userSpaceOnUse" color-interpolation-filters="sRGB">
<feFlood flood-opacity="0" result="BackgroundImageFix"/>
<feColorMatrix in="SourceAlpha" type="matrix" values="0 0 0 0 0 0 0 0 0 0 0 0 0 0 0 0 0 0 127 0" result="hardAlpha"/>
<feOffset dy="4"/>
<feGaussianBlur stdDeviation="15"/>
<feColorMatrix type="matrix" values="0 0 0 0 0.211765 0 0 0 0 0.160784 0 0 0 0 0.717647 0 0 0 0.07 0"/>
<feBlend mode="normal" in2="BackgroundImageFix" result="effect1_dropShadow_1009_4368"/>
<feBlend mode="normal" in="SourceGraphic" in2="effect1_dropShadow_1009_4368" result="shape"/>
</filter>
</defs>
</svg>
