<svg width="914" height="146" viewBox="0 0 914 146" fill="none" xmlns="http://www.w3.org/2000/svg">
<path d="M115.919 61.98V45.4486C115.919 25.2457 99.3857 8.71429 79.1843 8.71429H60.8157C40.6128 8.71429 24.08 25.2457 24.08 45.4486V61.98L5.71428 109.736C5.71428 118.919 34.4957 137.286 70 137.286C105.504 137.286 134.286 118.919 134.286 109.736L115.919 61.98ZM42.4486 122.363C40.5457 122.363 39.0043 120.82 39.0043 118.919C39.0043 117.014 40.5457 115.476 42.4486 115.476C44.3529 115.476 45.8929 117.014 45.8929 118.919C45.8929 120.82 44.3529 122.363 42.4486 122.363ZM37.8571 73C37.8571 70.4743 39.1343 66.7814 40.69 64.7957C40.69 64.7957 45.0543 59.2243 53.9286 59.2243C58.4314 59.2243 61.5729 61.2943 61.5729 61.2943C63.6829 62.6814 65.4086 65.8829 65.4086 68.4072V75.2957C65.4086 76.5572 63.3428 77.5914 60.8171 77.5914H42.4486C39.9229 77.5929 37.8571 75.5243 37.8571 73ZM56.2229 118.919H51.6314V109.736L56.2229 105.143V118.919ZM67.7028 118.919H60.8157V100.551H67.7028V118.919ZM63.1114 95.9586V89.0714C63.1114 85.2657 66.1986 82.1843 70 82.1843C73.8029 82.1843 76.8871 85.2657 76.8871 89.0714V95.9586H63.1114ZM79.1843 118.919H72.2971V100.551H79.1843V118.919ZM88.3671 118.919H83.7757V105.143L88.3671 109.736V118.919ZM97.5514 122.363C95.6471 122.363 94.1071 120.82 94.1071 118.919C94.1071 117.014 95.6471 115.476 97.5514 115.476C99.4529 115.476 100.994 117.014 100.994 118.919C100.994 120.82 99.4529 122.363 97.5514 122.363ZM97.5514 77.5929H79.1843C76.6571 77.5929 74.5929 76.5572 74.5929 75.2972V68.4086C74.5929 65.8829 76.3171 62.6814 78.4286 61.2957C78.4286 61.2957 81.57 59.2257 86.0729 59.2257C94.9514 59.2257 99.3114 64.7972 99.3114 64.7972C100.869 66.7814 102.143 70.4743 102.143 73C102.143 75.5243 100.074 77.5929 97.5514 77.5929ZM125.933 111.876C125.661 111.983 125.379 112.03 125.101 112.03C124.18 112.03 123.314 111.474 122.964 110.569L106.266 67.6757C101.85 56.6429 96.3914 52.3357 86.8014 52.3357C80.44 52.3357 75.1014 56.2814 75.0529 56.3243C72.2186 58.4486 67.7843 58.4386 64.9486 56.3243C64.9014 56.2814 59.5114 52.3357 53.1971 52.3357C43.61 52.3357 38.1514 56.6429 33.7286 67.6943L17.0371 110.569C16.5786 111.75 15.2414 112.336 14.0643 111.876C12.8857 111.419 12.2986 110.087 12.76 108.901L29.4571 66.0114C34.5786 53.2029 41.6771 47.7443 53.1971 47.7443C61.0757 47.7443 67.4371 52.45 67.7028 52.6457C68.9057 53.5514 71.0957 53.5514 72.2957 52.6457C72.5628 52.45 78.9271 47.7443 86.8 47.7443C98.3214 47.7443 105.419 53.2029 110.536 65.9929L127.243 108.901C127.7 110.087 127.117 111.419 125.933 111.876Z" fill="white"/>
<path d="M179.392 113V52.968H194.512L195.072 67.416L193.504 66.744C194.325 63.5333 195.557 60.808 197.2 58.568C198.917 56.328 200.971 54.6107 203.36 53.416C205.749 52.2213 208.363 51.624 211.2 51.624C216.203 51.624 220.235 53.08 223.296 55.992C226.432 58.904 228.448 62.824 229.344 67.752L227.216 67.864C227.888 64.3547 229.045 61.4053 230.688 59.016C232.405 56.552 234.496 54.7227 236.96 53.528C239.424 52.2587 242.187 51.624 245.248 51.624C249.429 51.624 253.013 52.4827 256 54.2C258.987 55.9173 261.301 58.4933 262.944 61.928C264.587 65.288 265.408 69.432 265.408 74.36V113H248.608V79.064C248.608 74.36 247.899 70.8507 246.48 68.536C245.061 66.1467 242.747 64.952 239.536 64.952C237.52 64.952 235.803 65.512 234.384 66.632C232.965 67.752 231.845 69.3947 231.024 71.56C230.277 73.6507 229.904 76.2267 229.904 79.288V113H214.784V79.288C214.784 74.6587 214.112 71.112 212.768 68.648C211.424 66.184 209.109 64.952 205.824 64.952C203.808 64.952 202.053 65.512 200.56 66.632C199.141 67.752 198.059 69.3947 197.312 71.56C196.565 73.7253 196.192 76.3013 196.192 79.288V113H179.392ZM294.382 114.344C288.185 114.344 283.107 112.925 279.15 110.088C275.267 107.176 273.326 103.144 273.326 97.992C273.326 92.6907 274.969 88.6213 278.254 85.784C281.614 82.872 286.542 80.744 293.038 79.4L312.414 75.592C312.414 71.7093 311.518 68.7973 309.726 66.856C308.009 64.84 305.507 63.832 302.222 63.832C299.011 63.832 296.51 64.5787 294.718 66.072C292.926 67.4907 291.769 69.6187 291.246 72.456L274.334 71.672C275.454 65.1013 278.403 60.136 283.182 56.776C288.035 53.3413 294.382 51.624 302.222 51.624C311.182 51.624 317.902 53.752 322.382 58.008C326.937 62.264 329.214 68.4987 329.214 76.712V97.208C329.214 98.9253 329.475 100.083 329.998 100.68C330.595 101.203 331.454 101.464 332.574 101.464H334.254V113C333.731 113.149 332.873 113.299 331.678 113.448C330.558 113.597 329.438 113.672 328.318 113.672C325.929 113.672 323.689 113.261 321.598 112.44C319.582 111.619 317.939 110.237 316.67 108.296C315.401 106.28 314.766 103.443 314.766 99.784L316.222 100.904C315.475 103.592 314.131 105.944 312.19 107.96C310.323 109.976 307.859 111.544 304.798 112.664C301.811 113.784 298.339 114.344 294.382 114.344ZM298.414 102.808C301.177 102.808 303.603 102.285 305.694 101.24C307.785 100.12 309.427 98.5147 310.622 96.424C311.817 94.3333 312.414 91.8693 312.414 89.032V86.12L298.75 89.032C296.062 89.5547 294.009 90.4507 292.59 91.72C291.246 92.9147 290.574 94.4827 290.574 96.424C290.574 98.44 291.246 100.008 292.59 101.128C293.934 102.248 295.875 102.808 298.414 102.808ZM355.42 113C350.492 113 346.647 111.768 343.884 109.304C341.121 106.84 339.74 102.845 339.74 97.32V33.48H356.54V95.528C356.54 97.32 356.951 98.5893 357.772 99.336C358.593 100.083 359.788 100.456 361.356 100.456H365.388V113H355.42ZM385.693 113L363.741 52.968H381.325L395.549 96.088L409.661 52.968H427.245L405.181 113H385.693ZM449.318 114.344C443.121 114.344 438.043 112.925 434.086 110.088C430.203 107.176 428.262 103.144 428.262 97.992C428.262 92.6907 429.905 88.6213 433.19 85.784C436.55 82.872 441.478 80.744 447.974 79.4L467.35 75.592C467.35 71.7093 466.454 68.7973 464.662 66.856C462.945 64.84 460.443 63.832 457.158 63.832C453.947 63.832 451.446 64.5787 449.654 66.072C447.862 67.4907 446.705 69.6187 446.182 72.456L429.27 71.672C430.39 65.1013 433.339 60.136 438.118 56.776C442.971 53.3413 449.318 51.624 457.158 51.624C466.118 51.624 472.838 53.752 477.318 58.008C481.873 62.264 484.15 68.4987 484.15 76.712V97.208C484.15 98.9253 484.411 100.083 484.934 100.68C485.531 101.203 486.39 101.464 487.51 101.464H489.19V113C488.667 113.149 487.809 113.299 486.614 113.448C485.494 113.597 484.374 113.672 483.254 113.672C480.865 113.672 478.625 113.261 476.534 112.44C474.518 111.619 472.875 110.237 471.606 108.296C470.337 106.28 469.702 103.443 469.702 99.784L471.158 100.904C470.411 103.592 469.067 105.944 467.126 107.96C465.259 109.976 462.795 111.544 459.734 112.664C456.747 113.784 453.275 114.344 449.318 114.344ZM453.35 102.808C456.113 102.808 458.539 102.285 460.63 101.24C462.721 100.12 464.363 98.5147 465.558 96.424C466.753 94.3333 467.35 91.8693 467.35 89.032V86.12L453.686 89.032C450.998 89.5547 448.945 90.4507 447.526 91.72C446.182 92.9147 445.51 94.4827 445.51 96.424C445.51 98.44 446.182 100.008 447.526 101.128C448.87 102.248 450.811 102.808 453.35 102.808ZM516.068 114.344C510.991 114.344 506.586 113.075 502.852 110.536C499.194 107.923 496.356 104.301 494.34 99.672C492.399 94.968 491.428 89.4053 491.428 82.984C491.428 76.5627 492.436 71.0373 494.452 66.408C496.468 61.704 499.306 58.0827 502.964 55.544C506.698 52.9307 511.066 51.624 516.068 51.624C520.324 51.624 523.983 52.52 527.044 54.312C530.18 56.0293 532.532 58.4187 534.1 61.48V33.48H550.9V113H534.884L534.548 104.152C532.906 107.363 530.442 109.864 527.156 111.656C523.946 113.448 520.25 114.344 516.068 114.344ZM521.556 101.464C524.244 101.464 526.522 100.755 528.388 99.336C530.255 97.9173 531.674 95.864 532.644 93.176C533.615 90.4133 534.1 87.016 534.1 82.984C534.1 78.8773 533.615 75.48 532.644 72.792C531.674 70.0293 530.255 67.976 528.388 66.632C526.522 65.2133 524.244 64.504 521.556 64.504C517.599 64.504 514.463 66.184 512.148 69.544C509.834 72.8293 508.676 77.3093 508.676 82.984C508.676 88.584 509.834 93.064 512.148 96.424C514.538 99.784 517.674 101.464 521.556 101.464ZM589.319 114.344C583.196 114.344 577.858 113.075 573.303 110.536C568.823 107.923 565.314 104.264 562.775 99.56C560.311 94.856 559.079 89.3307 559.079 82.984C559.079 76.6373 560.311 71.1493 562.775 66.52C565.314 61.816 568.823 58.1573 573.303 55.544C577.783 52.9307 583.084 51.624 589.207 51.624C595.18 51.624 600.37 52.9307 604.775 55.544C609.18 58.1573 612.578 61.8907 614.967 66.744C617.431 71.5973 618.663 77.384 618.663 84.104V87.464H576.439C576.663 92.2427 577.932 95.7893 580.247 98.104C582.636 100.419 585.772 101.576 589.655 101.576C592.492 101.576 594.844 100.979 596.711 99.784C598.652 98.5893 600.034 96.76 600.855 94.296L617.767 95.304C616.199 101.277 612.876 105.944 607.799 109.304C602.722 112.664 596.562 114.344 589.319 114.344ZM576.439 77.16H601.415C601.191 72.7547 599.959 69.4693 597.719 67.304C595.554 65.1387 592.716 64.056 589.207 64.056C585.698 64.056 582.786 65.2133 580.471 67.528C578.231 69.768 576.887 72.9787 576.439 77.16ZM626.806 113V52.968H642.71L643.27 70.44L642.038 70.104C643.008 64.056 644.726 59.688 647.19 57C649.654 54.312 653.051 52.968 657.382 52.968H662.87V66.856H657.382C654.246 66.856 651.67 67.2667 649.654 68.088C647.638 68.9093 646.107 70.216 645.062 72.008C644.091 73.8 643.606 76.2267 643.606 79.288V113H626.806ZM700.032 114.344C695.552 114.344 691.632 113.224 688.272 110.984C684.912 108.669 682.411 105.683 680.768 102.024L680.432 113H673.936V33.48H681.328V64.056C682.821 60.8453 685.211 58.0827 688.496 55.768C691.781 53.4533 695.627 52.296 700.032 52.296C705.184 52.296 709.627 53.5653 713.36 56.104C717.168 58.6427 720.117 62.2267 722.208 66.856C724.299 71.4853 725.344 76.9733 725.344 83.32C725.344 89.6667 724.299 95.1547 722.208 99.784C720.117 104.413 717.168 107.997 713.36 110.536C709.627 113.075 705.184 114.344 700.032 114.344ZM699.696 107.288C705.147 107.288 709.477 105.16 712.688 100.904C715.899 96.5733 717.504 90.712 717.504 83.32C717.504 75.928 715.899 70.104 712.688 65.848C709.477 61.5173 705.184 59.352 699.808 59.352C696 59.352 692.715 60.36 689.952 62.376C687.189 64.3173 685.061 67.08 683.568 70.664C682.075 74.248 681.328 78.4667 681.328 83.32C681.328 88.0987 682.075 92.3173 683.568 95.976C685.061 99.56 687.152 102.36 689.84 104.376C692.603 106.317 695.888 107.288 699.696 107.288ZM753.548 114.344C747.574 114.344 742.796 112.925 739.212 110.088C735.628 107.176 733.836 103.256 733.836 98.328C733.836 93.4 735.404 89.5173 738.54 86.68C741.676 83.8427 746.268 81.864 752.316 80.744L774.268 76.6C774.268 70.7013 772.998 66.3707 770.46 63.608C767.921 60.7707 764.076 59.352 758.924 59.352C754.369 59.352 750.748 60.4347 748.06 62.6C745.372 64.7653 743.58 67.8267 742.684 71.784L734.844 71.112C735.964 65.3627 738.577 60.808 742.684 57.448C746.865 54.0133 752.278 52.296 758.924 52.296C766.316 52.296 771.953 54.3867 775.836 58.568C779.718 62.7493 781.66 68.7227 781.66 76.488V101.24C781.66 103.256 781.958 104.637 782.556 105.384C783.228 106.056 784.273 106.392 785.692 106.392H787.484V113C787.185 113.075 786.737 113.112 786.14 113.112C785.617 113.187 785.057 113.224 784.46 113.224C782.145 113.224 780.204 112.813 778.636 111.992C777.142 111.171 776.022 109.827 775.276 107.96C774.604 106.093 774.268 103.517 774.268 100.232L775.164 100.344C774.492 102.957 773.11 105.347 771.02 107.512C769.004 109.603 766.465 111.283 763.404 112.552C760.342 113.747 757.057 114.344 753.548 114.344ZM754.22 107.736C758.326 107.736 761.873 106.915 764.86 105.272C767.846 103.629 770.161 101.427 771.804 98.664C773.446 95.8267 774.268 92.6533 774.268 89.144V83.208L753.884 87.016C749.628 87.8373 746.492 89.1067 744.476 90.824C742.534 92.5413 741.564 94.8187 741.564 97.656C741.564 100.867 742.684 103.368 744.924 105.16C747.164 106.877 750.262 107.736 754.22 107.736ZM796.44 113V53.64H803.16L803.496 69.208L802.6 68.536C803.198 64.8773 804.43 61.8533 806.296 59.464C808.238 57.0747 810.59 55.2827 813.352 54.088C816.115 52.8933 819.102 52.296 822.312 52.296C826.867 52.296 830.6 53.304 833.512 55.32C836.499 57.336 838.702 60.0613 840.12 63.496C841.539 66.856 842.248 70.6267 842.248 74.808V113H834.856V77.496C834.856 73.6133 834.371 70.2907 833.4 67.528C832.504 64.7653 831.011 62.6373 828.92 61.144C826.83 59.6507 824.104 58.904 820.744 58.904C815.667 58.904 811.56 60.5467 808.424 63.832C805.363 67.1173 803.832 71.672 803.832 77.496V113H796.44ZM857.31 113V33.48H864.702V87.464L896.846 53.64H906.702L882.286 78.952L908.158 113H899.198L877.358 83.88L864.702 96.872V113H857.31Z" fill="white"/>
</svg>
