<svg width="140" height="146" viewBox="0 0 140 146" fill="none" xmlns="http://www.w3.org/2000/svg">
<path d="M115.919 61.98V45.4486C115.919 25.2457 99.3857 8.71429 79.1843 8.71429H60.8157C40.6128 8.71429 24.08 25.2457 24.08 45.4486V61.98L5.71428 109.736C5.71428 118.919 34.4957 137.286 70 137.286C105.504 137.286 134.286 118.919 134.286 109.736L115.919 61.98ZM42.4486 122.363C40.5457 122.363 39.0043 120.82 39.0043 118.919C39.0043 117.014 40.5457 115.476 42.4486 115.476C44.3529 115.476 45.8929 117.014 45.8929 118.919C45.8929 120.82 44.3529 122.363 42.4486 122.363ZM37.8571 73C37.8571 70.4743 39.1343 66.7814 40.69 64.7957C40.69 64.7957 45.0543 59.2243 53.9286 59.2243C58.4314 59.2243 61.5729 61.2943 61.5729 61.2943C63.6829 62.6814 65.4086 65.8829 65.4086 68.4072V75.2957C65.4086 76.5572 63.3428 77.5914 60.8171 77.5914H42.4486C39.9229 77.5929 37.8571 75.5243 37.8571 73ZM56.2229 118.919H51.6314V109.736L56.2229 105.143V118.919ZM67.7028 118.919H60.8157V100.551H67.7028V118.919ZM63.1114 95.9586V89.0714C63.1114 85.2657 66.1986 82.1843 70 82.1843C73.8029 82.1843 76.8871 85.2657 76.8871 89.0714V95.9586H63.1114ZM79.1843 118.919H72.2971V100.551H79.1843V118.919ZM88.3671 118.919H83.7757V105.143L88.3671 109.736V118.919ZM97.5514 122.363C95.6471 122.363 94.1071 120.82 94.1071 118.919C94.1071 117.014 95.6471 115.476 97.5514 115.476C99.4529 115.476 100.994 117.014 100.994 118.919C100.994 120.82 99.4529 122.363 97.5514 122.363ZM97.5514 77.5929H79.1843C76.6571 77.5929 74.5929 76.5572 74.5929 75.2972V68.4086C74.5929 65.8829 76.3171 62.6814 78.4286 61.2957C78.4286 61.2957 81.57 59.2257 86.0729 59.2257C94.9514 59.2257 99.3114 64.7972 99.3114 64.7972C100.869 66.7814 102.143 70.4743 102.143 73C102.143 75.5243 100.074 77.5929 97.5514 77.5929ZM125.933 111.876C125.661 111.983 125.379 112.03 125.101 112.03C124.18 112.03 123.314 111.474 122.964 110.569L106.266 67.6757C101.85 56.6429 96.3914 52.3357 86.8014 52.3357C80.44 52.3357 75.1014 56.2814 75.0529 56.3243C72.2186 58.4486 67.7843 58.4386 64.9486 56.3243C64.9014 56.2814 59.5114 52.3357 53.1971 52.3357C43.61 52.3357 38.1514 56.6429 33.7286 67.6943L17.0371 110.569C16.5786 111.75 15.2414 112.336 14.0643 111.876C12.8857 111.419 12.2986 110.087 12.76 108.901L29.4571 66.0114C34.5786 53.2029 41.6771 47.7443 53.1971 47.7443C61.0757 47.7443 67.4371 52.45 67.7028 52.6457C68.9057 53.5514 71.0957 53.5514 72.2957 52.6457C72.5628 52.45 78.9271 47.7443 86.8 47.7443C98.3214 47.7443 105.419 53.2029 110.536 65.9929L127.243 108.901C127.7 110.087 127.117 111.419 125.933 111.876Z" fill="white"/>
</svg>
